# xmcd
#
# Track frame offsets: 
#        150
#        20849
#        45094
#        78208
#        100777
#        117437
#        136198
#        152846
#        174214
#
# Disc length: 2658 seconds
#
# Revision: 4
# Processed by: cddbd v1.5.2PL0 Copyright (c) Steve Scherf et al.
# Submitted via: ExactAudioCopyFreeDBPlugin 1.0
#
DISCID=600a6009
DTITLE=Stevie Wonder - Innervisions
DYEAR=1973
DGENRE=R&B
TTITLE0=Too High
TTITLE1=Visions
TTITLE2=Living For The City
TTITLE3=Golden Lady
TTITLE4=Higher Ground
TTITLE5=Jesus Children Of America
TTITLE6=All In Love Is Fair
TTITLE7=Don't You Worry 'Bout A Thing
TTITLE8=He's Misstra Know-It-All
EXTD=YEAR: 1973
EXTT0=
EXTT1=
EXTT2=
EXTT3=
EXTT4=
EXTT5=
EXTT6=
EXTT7=
EXTT8=
PLAYORDER=
